<svg xmlns="http://www.w3.org/2000/svg" viewBox="0 0 512 512" width="100%" height="100%">
  <defs>
    <linearGradient id="bg-grad" x1="0%" y1="0%" x2="100%" y2="100%">
      <stop offset="0%" stop-color="#0e1713" />
      <stop offset="50%" stop-color="#060b09" />
      <stop offset="100%" stop-color="#020403" />
    </linearGradient>
    <linearGradient id="emerald-grad" x1="0%" y1="0%" x2="100%" y2="100%">
      <stop offset="0%" stop-color="#34d399" />
      <stop offset="100%" stop-color="#059669" />
    </linearGradient>
    <linearGradient id="gold-grad" x1="0%" y1="0%" x2="100%" y2="100%">
      <stop offset="0%" stop-color="#fbbf24" />
      <stop offset="100%" stop-color="#d97706" />
    </linearGradient>
    <filter id="shadow" x="-10%" y="-10%" width="120%" height="120%">
      <feDropShadow dx="0" dy="8" stdDeviation="12" flood-color="#000000" flood-opacity="0.5" />
    </filter>
  </defs>

  <circle cx="256" cy="256" r="240" fill="url(#bg-grad)" stroke="#10b981" stroke-width="4" />
  
  <g filter="url(#shadow)">
    <rect x="136" y="100" width="240" height="312" rx="20" fill="#1e293b" stroke="#334155" stroke-width="6" />
    <path d="M 120,140 L 146,140 M 120,200 L 146,200 M 120,260 L 146,260 M 120,320 L 146,320 M 120,380 L 146,380" stroke="url(#emerald-grad)" stroke-width="8" stroke-linecap="round" />
    <line x1="180" y1="150" x2="330" y2="150" stroke="#475569" stroke-width="6" stroke-linecap="round" />
    <line x1="180" y1="210" x2="330" y2="210" stroke="#475569" stroke-width="6" stroke-linecap="round" />
    <line x1="180" y1="270" x2="330" y2="270" stroke="#475569" stroke-width="6" stroke-linecap="round" />
    <line x1="180" y1="330" x2="330" y2="330" stroke="#475569" stroke-width="6" stroke-linecap="round" />
    
    <circle cx="290" cy="290" r="70" fill="url(#bg-grad)" stroke="url(#emerald-grad)" stroke-width="6" />
    <text x="290" y="318" font-family="'Outfit', 'Inter', sans-serif" font-size="85" font-weight="800" fill="url(#emerald-grad)" text-anchor="middle">€</text>
    
    <path d="M 330,120 L 350,120 L 340,140 Z" fill="url(#gold-grad)" />
  </g>
</svg>
